<svg xmlns="http://www.w3.org/2000/svg" version="1.1" xmlns:xlink="http://www.w3.org/1999/xlink" xmlns:svgjs="http://svgjs.com/svgjs" width="1440" height="1000" preserveAspectRatio="none" viewBox="0 0 1440 1000"><g mask="url(&quot;#SvgjsMask2162&quot;)" fill="none"><rect width="1440" height="1000" x="0" y="0" fill="rgba(54, 54, 54, 1)"></rect><path d="M326.465,713.405C370.858,712.584,415.255,693.827,435.909,654.522C455.46,617.317,439.705,574.485,418.547,538.17C397.58,502.181,368.065,468.724,326.465,466.669C281.701,464.458,240.427,489.921,217.153,528.223C192.906,568.126,186.039,618.497,209.774,658.706C233.179,698.356,280.43,714.257,326.465,713.405" fill="rgba(45, 152, 255, 0.58)" class="triangle-float1"></path><path d="M557.157,1141.653C636.541,1142.485,703.294,1083.353,737.369,1011.65C767.182,948.916,745.371,879.141,710.437,819.108C675.772,759.537,625.985,705.583,557.157,701.963C482.54,698.038,410.048,736.394,373.146,801.366C336.653,865.618,348.226,942.94,383.374,1007.938C420.636,1076.846,478.823,1140.832,557.157,1141.653" fill="rgba(45, 152, 255, 0.58)" class="triangle-float3"></path><path d="M178.381,481.69C236.356,485.989,298.319,464.258,325.94,413.105C352.619,363.697,326.71,307.11,299.026,258.258C270.792,208.434,235.649,152.824,178.381,152.714C121.005,152.604,81.462,205.925,56.933,257.794C36.142,301.758,41.225,350.964,64.413,393.712C88.938,438.926,127.085,477.886,178.381,481.69" fill="rgba(45, 152, 255, 0.58)" class="triangle-float1"></path><path d="M1079.125,993.843C1140.852,993.191,1190.22,948.231,1220.42,894.393C1249.874,841.884,1257.602,779.251,1229.308,726.108C1199.281,669.709,1142.973,631.438,1079.125,629.002C1010.837,626.396,940.436,653.857,907.687,713.837C875.967,771.934,898,840.983,932.563,897.434C965.29,950.886,1016.453,994.505,1079.125,993.843" fill="rgba(45, 152, 255, 0.58)" class="triangle-float1"></path><path d="M1081.291,703.479C1166.174,705.823,1246.467,660.467,1288.199,586.515C1329.265,513.743,1320.732,425.3,1279.181,352.804C1237.38,279.872,1165.322,227.806,1081.291,225.516C993.265,223.117,905.46,263.906,863.796,341.485C823.908,415.757,849.85,503.346,893.268,575.611C935.106,645.245,1000.086,701.237,1081.291,703.479" fill="rgba(45, 152, 255, 0.58)" class="triangle-float1"></path></g><defs><mask id="SvgjsMask2162"><rect width="1440" height="1000" fill="#ffffff"></rect></mask><style>
            @keyframes float1 {
                0%{transform: translate(0, 0)}
                50%{transform: translate(-10px, 0)}
                100%{transform: translate(0, 0)}
            }

            .triangle-float1 {
                animation: float1 5s infinite;
            }

            @keyframes float2 {
                0%{transform: translate(0, 0)}
                50%{transform: translate(-5px, -5px)}
                100%{transform: translate(0, 0)}
            }

            .triangle-float2 {
                animation: float2 4s infinite;
            }

            @keyframes float3 {
                0%{transform: translate(0, 0)}
                50%{transform: translate(0, -10px)}
                100%{transform: translate(0, 0)}
            }

            .triangle-float3 {
                animation: float3 6s infinite;
            }
        </style></defs></svg>